<svg width="26" height="25" viewBox="0 0 26 25" fill="none" xmlns="http://www.w3.org/2000/svg">
<g clip-path="url(#clip0_4435_5868)">
<path d="M24.8661 4.47159C24.6385 2.33955 22.9547 0.655365 20.8225 0.428009C15.4754 -0.14267 10.1127 -0.14267 4.76585 0.428009C2.63362 0.655556 0.949623 2.33955 0.722076 4.47159C0.151398 9.81846 0.151398 15.1814 0.722076 20.5282C0.949623 22.6604 2.63362 24.3444 4.76566 24.572C10.1125 25.1427 15.4754 25.1427 20.8225 24.572C22.9547 24.3444 24.6385 22.6604 24.8661 20.5282C25.4367 15.1814 25.4367 9.81865 24.8661 4.47159V4.47159Z" fill="url(#paint0_radial_4435_5868)"/>
<path d="M23.5062 5.37593C23.3044 3.48403 21.8102 1.98962 19.9181 1.78763C15.1734 1.28142 10.4146 1.28142 5.66986 1.78763C3.77796 1.98962 2.28355 3.48403 2.08156 5.37593C1.57535 10.1206 1.57535 14.8795 2.08156 19.624C2.28355 21.5161 3.77796 23.0105 5.66986 23.2123C10.4146 23.7187 15.1734 23.7187 19.9179 23.2123C21.81 23.0105 23.3044 21.5161 23.5062 19.624C24.0126 14.8795 24.0126 10.1206 23.5062 5.37593V5.37593Z" fill="url(#paint1_linear_4435_5868)"/>
<path d="M0.668701 20.0101C0.685867 20.1829 0.703606 20.3557 0.722107 20.5285C0.949654 22.6605 2.63365 24.3445 4.76588 24.5721C10.1127 25.1427 15.4756 25.1427 20.8225 24.5721C22.9547 24.3445 24.6385 22.6605 24.8661 20.5285C24.8846 20.3557 24.9023 20.1829 24.9197 20.0101H0.668701Z" fill="url(#paint2_linear_4435_5868)"/>
<path d="M24.8662 20.5283C25.1729 17.6553 25.3144 14.7777 25.2915 11.9004L19.5771 6.18601C18.8632 5.371 17.8204 4.86231 16.5952 4.81825C14.0754 4.72746 11.5476 4.73204 9.02737 4.81863C6.93425 4.89073 5.47055 6.29759 5.09518 8.36535C5.029 8.73041 4.98933 9.10025 4.93726 9.46798V15.5299C4.96606 15.7264 5.0084 15.9219 5.02156 16.1195C5.10548 17.3772 5.62238 18.4545 6.44997 19.1833L12.2651 24.9982C15.1189 25.0182 17.9728 24.8763 20.8226 24.5721C22.9548 24.3445 24.6386 22.6605 24.8662 20.5283V20.5283Z" fill="url(#paint3_linear_4435_5868)"/>
<path d="M24.866 20.5284C24.6386 22.6602 22.9543 24.3446 20.8224 24.572C17.973 24.876 15.1185 25.0181 12.2651 24.9981L6.45874 19.1917C7.13184 19.7809 8.00922 20.1397 9.02737 20.178C11.547 20.2726 14.0754 20.2701 16.595 20.1793C18.8739 20.097 20.523 18.4103 20.5941 16.1314C20.67 13.7117 20.67 11.2858 20.5941 8.8661C20.5617 7.81477 20.1926 6.88971 19.5807 6.18971L25.2915 11.9005C25.314 14.7774 25.1725 17.6554 24.866 20.5284Z" fill="url(#paint4_linear_4435_5868)"/>
<path d="M15.744 9.79279C15.0119 8.99571 13.9616 8.49561 12.7941 8.49561C10.5827 8.49561 8.78979 10.2885 8.78979 12.4999C8.78979 13.6674 9.2899 14.7178 10.087 15.4498L19.3515 24.7144C19.8419 24.6716 20.3323 24.6241 20.8223 24.5719C22.9545 24.3443 24.6385 22.6603 24.8661 20.5281C24.9183 20.0381 24.9658 19.5477 25.0086 19.0574L15.744 9.79279Z" fill="url(#paint5_linear_4435_5868)"/>
<path d="M25.2457 15.1929L17.7895 7.73686C17.6156 7.50855 17.3415 7.36035 17.0323 7.36035C16.5063 7.36035 16.0796 7.78683 16.0796 8.31307C16.0796 8.62225 16.2278 8.89634 16.4561 9.07029L25.1124 17.7268C25.1712 16.8824 25.2156 16.0376 25.2457 15.1929V15.1929Z" fill="url(#paint6_linear_4435_5868)"/>
<path d="M4.93726 9.46799C4.98933 9.10025 5.029 8.73041 5.09518 8.36535C5.47036 6.29759 6.93425 4.89073 9.02738 4.81863C11.5476 4.73204 14.0754 4.72746 16.5952 4.81825C18.8733 4.90026 20.5232 6.58712 20.5943 8.86603C20.67 11.2859 20.67 13.7116 20.5943 16.1315C20.5232 18.4104 18.8739 20.0971 16.5954 20.1793C14.0756 20.2703 11.5472 20.2725 9.02757 20.1779C6.74905 20.0923 5.17396 18.4016 5.02156 16.1193C5.0084 15.9219 4.96606 15.7262 4.93726 15.5297C4.93726 13.5091 4.93726 11.4884 4.93726 9.46799V9.46799ZM12.7963 18.8287C13.9495 18.8287 15.1038 18.8632 16.2555 18.8207C18.0612 18.7537 19.1718 17.6761 19.214 15.8721C19.2662 13.6243 19.2662 11.3734 19.214 9.12543C19.1718 7.32184 18.0604 6.21901 16.2555 6.18067C13.9645 6.13222 11.6712 6.1326 9.38024 6.18067C7.58904 6.21824 6.47515 7.29876 6.42651 9.08251C6.36472 11.3587 6.36472 13.639 6.42651 15.9152C6.47515 17.6988 7.58904 18.7543 9.38043 18.8207C10.5176 18.863 11.6576 18.8287 12.7963 18.8287V18.8287Z" fill="url(#paint7_linear_4435_5868)"/>
<path d="M4.93726 9.46799C4.98933 9.10025 5.029 8.73041 5.09518 8.36535C5.47036 6.29759 6.93425 4.89073 9.02738 4.81863C11.5476 4.73204 14.0754 4.72746 16.5952 4.81825C18.8733 4.90026 20.5232 6.58712 20.5943 8.86603C20.67 11.2859 20.67 13.7116 20.5943 16.1315C20.5232 18.4104 18.8739 20.0971 16.5954 20.1793C14.0756 20.2703 11.5472 20.2725 9.02757 20.1779C6.74905 20.0923 5.17396 18.4016 5.02156 16.1193C5.0084 15.9219 4.96606 15.7262 4.93726 15.5297C4.93726 13.5091 4.93726 11.4884 4.93726 9.46799V9.46799ZM12.7963 18.8287C13.9495 18.8287 15.1038 18.8632 16.2555 18.8207C18.0612 18.7537 19.1718 17.6761 19.214 15.8721C19.2662 13.6243 19.2662 11.3734 19.214 9.12543C19.1718 7.32184 18.0604 6.21901 16.2555 6.18067C13.9645 6.13222 11.6712 6.1326 9.38024 6.18067C7.58904 6.21824 6.47515 7.29876 6.42651 9.08251C6.36472 11.3587 6.36472 13.639 6.42651 15.9152C6.47515 17.6988 7.58904 18.7543 9.38043 18.8207C10.5176 18.863 11.6576 18.8287 12.7963 18.8287V18.8287Z" fill="white"/>
<path d="M12.7941 8.49596C10.5827 8.49596 8.78979 10.2887 8.78979 12.5001C8.78979 14.7116 10.5827 16.5043 12.7941 16.5043C15.0057 16.5043 16.7984 14.7116 16.7984 12.5001C16.7984 10.2887 15.0057 8.49596 12.7941 8.49596ZM12.7941 15.1257C11.3439 15.1257 10.1684 13.9502 10.1684 12.5001C10.1684 11.0499 11.3439 9.8744 12.7941 9.8744C14.2442 9.8744 15.4197 11.0499 15.4197 12.5001C15.4197 13.9502 14.2442 15.1257 12.7941 15.1257Z" fill="white"/>
<path d="M17.9848 8.3133C17.9848 8.83935 17.5584 9.26583 17.0323 9.26583C16.5063 9.26583 16.0796 8.83935 16.0796 8.3133C16.0796 7.78706 16.5063 7.36058 17.0323 7.36058C17.5584 7.36058 17.9848 7.78706 17.9848 8.3133Z" fill="white"/>
</g>
<defs>
<radialGradient id="paint0_radial_4435_5868" cx="0" cy="0" r="1" gradientUnits="userSpaceOnUse" gradientTransform="translate(5.41893 21.848) scale(27.5706)">
<stop stop-color="#FAE100"/>
<stop offset="0.0544" stop-color="#FADC04"/>
<stop offset="0.1167" stop-color="#FBCE0E"/>
<stop offset="0.1829" stop-color="#FCB720"/>
<stop offset="0.2514" stop-color="#FE9838"/>
<stop offset="0.3054" stop-color="#FF7950"/>
<stop offset="0.4922" stop-color="#FF1C74"/>
<stop offset="1" stop-color="#6C1CD1"/>
</radialGradient>
<linearGradient id="paint1_linear_4435_5868" x1="9.8825" y1="10.8624" x2="-32.4705" y2="-12.9612" gradientUnits="userSpaceOnUse">
<stop stop-color="#A1B5D8" stop-opacity="0"/>
<stop offset="0.3094" stop-color="#90A2BD" stop-opacity="0.309804"/>
<stop offset="0.7554" stop-color="#7C8B9C" stop-opacity="0.756863"/>
<stop offset="1" stop-color="#748290"/>
</linearGradient>
<linearGradient id="paint2_linear_4435_5868" x1="12.7941" y1="22.0687" x2="12.7941" y2="25.9656" gradientUnits="userSpaceOnUse">
<stop stop-color="#FAE100" stop-opacity="0"/>
<stop offset="0.3068" stop-color="#FCA800" stop-opacity="0.305882"/>
<stop offset="0.6275" stop-color="#FE7300" stop-opacity="0.627451"/>
<stop offset="0.8685" stop-color="#FF5200" stop-opacity="0.866667"/>
<stop offset="1" stop-color="#FF4500"/>
</linearGradient>
<linearGradient id="paint3_linear_4435_5868" x1="11.372" y1="11.0425" x2="5.18485" y2="4.85538" gradientUnits="userSpaceOnUse">
<stop stop-color="#833AB4" stop-opacity="0"/>
<stop offset="1" stop-color="#833AB4"/>
</linearGradient>
<linearGradient id="paint4_linear_4435_5868" x1="17.4278" y1="22.8656" x2="14.3397" y2="8.30748" gradientUnits="userSpaceOnUse">
<stop stop-color="#833AB4" stop-opacity="0"/>
<stop offset="1" stop-color="#833AB4"/>
</linearGradient>
<linearGradient id="paint5_linear_4435_5868" x1="18.6029" y1="18.3087" x2="6.19941" y2="5.90521" gradientUnits="userSpaceOnUse">
<stop stop-color="#833AB4" stop-opacity="0"/>
<stop offset="1" stop-color="#833AB4"/>
</linearGradient>
<linearGradient id="paint6_linear_4435_5868" x1="19.523" y1="10.8038" x2="15.4214" y2="6.70215" gradientUnits="userSpaceOnUse">
<stop stop-color="#833AB4" stop-opacity="0"/>
<stop offset="1" stop-color="#833AB4"/>
</linearGradient>
<linearGradient id="paint7_linear_4435_5868" x1="17.758" y1="7.57087" x2="7.64491" y2="17.6839" gradientUnits="userSpaceOnUse">
<stop stop-color="#833AB4"/>
<stop offset="0.0922" stop-color="#9C3495"/>
<stop offset="0.2927" stop-color="#DC2546"/>
<stop offset="0.392" stop-color="#FD1D1D"/>
<stop offset="0.5589" stop-color="#FC6831"/>
<stop offset="0.6887" stop-color="#FC9B40"/>
<stop offset="0.7521" stop-color="#FCAF45"/>
<stop offset="0.7806" stop-color="#FDB750"/>
<stop offset="0.8656" stop-color="#FECB6A"/>
<stop offset="0.9415" stop-color="#FFD87A"/>
<stop offset="1" stop-color="#FFDC80"/>
</linearGradient>
<clipPath id="clip0_4435_5868">
<rect width="25" height="25" fill="white" transform="translate(0.294067)"/>
</clipPath>
</defs>
</svg>
