<svg width="25" height="40" viewBox="0 0 25 40" fill="none" xmlns="http://www.w3.org/2000/svg">
<path d="M24.9921 20.1061C24.8471 24.6495 24.08 29.0295 22.0532 33.0959C20.7767 35.6189 19.0922 37.8855 17.0764 39.793C16.9757 39.8809 16.8574 39.9433 16.7303 39.9753C16.6034 40.0074 16.471 40.0082 16.3437 39.9778C16.1737 39.9102 16.0318 39.5471 16.01 39.3045C15.8541 37.1508 15.5314 35.0516 14.3137 33.2362C14.0756 32.8817 13.8051 32.5528 13.5061 32.2542C12.7858 31.5314 12.184 31.5495 11.445 32.2542C10.1867 33.4573 9.64261 35.0515 9.29025 36.7316C9.1203 37.5485 9.08288 38.3951 8.9566 39.222C8.91762 39.4778 8.83031 39.8821 8.68219 39.9283C8.54532 39.9643 8.40269 39.9681 8.26425 39.9395C8.12583 39.9111 7.99496 39.8509 7.8808 39.7633C7.16672 39.085 6.4199 38.4116 5.85394 37.6063C4.86234 36.2068 3.94558 34.738 3.08026 33.2444C1.80022 31.0346 1.04249 28.5822 0.630883 26.0539C0.293513 23.8294 0.0852391 21.5851 0.00723415 19.3337C-0.058249 17.8996 0.303466 16.4885 1.80646 16.0017C2.51898 15.7706 3.34687 15.7789 4.09837 15.8796C6.82528 16.2443 9.53815 16.7047 12.131 17.751C12.382 17.8517 12.7359 17.7642 13.0134 17.6685C15.9508 16.6557 18.9957 16.0343 22.0781 15.8185C23.6887 15.7046 24.9282 17.1058 24.9968 18.8683C25.0061 19.2809 24.9921 19.6935 24.9921 20.1061ZM8.53719 28.8017C8.56837 28.7126 8.63074 28.569 8.66972 28.4188C8.7087 28.2687 8.73208 28.0888 8.76326 27.9105C13.6418 29.4288 16.459 32.7312 16.9813 38.1839C17.1288 38.0954 17.267 37.9903 17.3929 37.8703C18.2754 36.7712 19.2639 35.7463 20.0029 34.5465C22.9185 29.8068 24.0099 24.5207 23.9303 18.9211C23.9101 17.5613 22.9949 16.7889 21.9799 16.9655C19.8688 17.3286 17.7531 17.6735 15.6436 18.0498C15.1838 18.1579 14.7299 18.2929 14.2841 18.4541L14.3122 18.6521L18.4828 20.4081L18.0852 21.1606C15.137 20.1242 12.276 19.0796 9.39159 18.1174C7.22064 17.3945 4.96284 17.0055 2.68737 16.9622C1.93275 16.9473 1.46501 17.383 1.22803 18.0613C1.0705 18.5223 1.00468 19.0129 1.03469 19.5021C1.15163 21.2349 1.27636 22.9678 1.49308 24.694C2.07775 29.3727 3.89413 33.4771 6.79409 37.0468C7.12775 37.4577 7.52376 37.8126 7.95564 38.2631C8.47327 35.0763 9.09224 32.1882 12.092 30.4686L8.53719 28.8017Z" fill="#A2C2CF"/>
<path d="M12.4529 0C14.3165 1.71178 15.7458 3.4971 17.3478 8.04612C18.5938 7.46925 19.7579 6.82826 21.0288 6.33056C22.2997 5.83286 23.5991 5.48221 25 5.02976C24.288 7.92168 23.6401 10.5893 22.9993 13.2154L17.136 14.0788C16.9882 12.7591 16.7978 11.4716 16.6358 10.0256C14.4998 11.628 13.3429 13.4077 12.4742 15.7962C11.6839 13.3454 10.3489 11.6412 8.35885 10.0256C8.18085 11.4998 7.96015 12.7007 7.79639 14.075L1.958 13.2267C1.31542 10.5874 0.663939 7.91791 0 5.16926C2.72162 5.66885 5.21895 6.69817 7.68247 8.13471C8.69351 4.99017 10.0979 2.17365 12.4529 0ZM8.69173 8.672L12.4297 12.2011L16.2798 8.61169C15.6266 6.32492 14.4198 3.64412 12.4742 1.58735C10.591 3.63281 9.48027 6.07794 8.68817 8.66823L8.69173 8.672ZM22.152 11.9824L23.5778 6.53795C21.8494 7.3731 19.3948 8.32891 17.7038 9.27151C17.8818 10.2141 18.01 11.7883 18.1862 12.8082C19.4126 12.6064 20.6639 12.4047 21.9135 12.1879C21.9658 12.1759 22.0146 12.1511 22.0561 12.1154C22.0974 12.0797 22.1303 12.0341 22.152 11.9824ZM1.41686 6.53795C1.82982 8.19129 2.33892 10.1387 2.76078 11.7901C2.7946 11.9259 2.86224 12.1502 2.93878 12.1672C4.23462 12.3915 5.53401 12.5876 6.79069 12.7837C6.99005 11.5356 7.08971 10.529 7.29085 9.27151L1.41686 6.53795Z" fill="#483632"/>
</svg>
